<svg width="20" height="21" viewBox="0 0 20 21" fill="none" xmlns="http://www.w3.org/2000/svg">
<g id="Frame">
<g id="Group">
<g id="Group_2">
<path id="Vector" d="M10.4216 7.44702C9.40821 7.44702 8.53278 7.71865 7.91831 8.25536C7.30383 8.79208 6.96927 9.57873 6.96927 10.5442V11.8064H5.10994C4.9388 11.8064 4.80007 11.9284 4.80005 12.0789V14.2586C4.80007 14.4091 4.9388 14.531 5.10994 14.5311H6.96927V19.7079C6.96929 19.8583 7.10802 19.9803 7.27916 19.9803H9.75827C9.92941 19.9803 10.0681 19.8583 10.0682 19.7079V14.5311H12.2374C12.3936 14.5311 12.5253 14.4289 12.5449 14.2927L12.8547 12.113C12.8658 12.0354 12.8385 11.9573 12.7797 11.8987C12.7209 11.84 12.6362 11.8064 12.5473 11.8064H10.0682V10.7166C10.0682 10.4123 10.3419 10.1717 10.6879 10.1717H12.5473C12.7184 10.1716 12.8571 10.0497 12.8572 9.89919V7.81367C12.857 7.67711 12.7418 7.56176 12.5878 7.54387C12.314 7.51193 11.3254 7.44702 10.4216 7.44702ZM10.4216 7.99195C11.1771 7.99195 11.9074 8.04509 12.2374 8.0723V9.62673H10.6879C10.007 9.62673 9.44838 10.1179 9.44838 10.7166V12.0789C9.4484 12.2294 9.58713 12.3513 9.75827 12.3514H12.1962L11.9638 13.9861H9.75827C9.58713 13.9862 9.4484 14.1081 9.44838 14.2586V19.4354H7.58905V14.2586C7.58903 14.1081 7.4503 13.9862 7.27916 13.9861H5.41983V12.3514H7.27916C7.4503 12.3513 7.58903 12.2294 7.58905 12.0789V10.5442C7.58905 9.68736 7.87424 9.06189 8.3553 8.64171C8.83636 8.22153 9.53201 7.99195 10.4216 7.99195Z" fill="white"/>
</g>
</g>
</g>
</svg>
