<svg width="20" height="11" viewBox="0 0 20 11" fill="none" xmlns="http://www.w3.org/2000/svg">
<path d="M12.0563 0.439941C10.7482 0.439941 9.61816 0.659268 8.825 1.09264C8.03184 1.52601 7.6 2.16118 7.6 2.94072V3.95994H5.2C4.9791 3.95995 4.80003 4.05844 4.8 4.17994V5.93994C4.80003 6.06144 4.9791 6.15993 5.2 6.15994H7.6V10.3399C7.60003 10.4614 7.7791 10.5599 8 10.5599H11.2C11.4209 10.5599 11.6 10.4614 11.6 10.3399V6.15994H14.4C14.6016 6.15993 14.7717 6.07744 14.7969 5.96744L15.1969 4.20744C15.2112 4.1448 15.1759 4.08178 15.1 4.03443C15.0241 3.98708 14.9148 3.95995 14.8 3.95994H11.6V3.07994C11.6 2.83427 11.9533 2.63994 12.4 2.63994H14.8C15.0209 2.63993 15.2 2.54144 15.2 2.41994V0.735995C15.1998 0.625723 15.0511 0.532583 14.8523 0.518145C14.4989 0.49235 13.2229 0.439941 12.0563 0.439941ZM12.0563 0.879941C13.0314 0.879941 13.974 0.922852 14.4 0.944824V2.19994H12.4C11.5211 2.19994 10.8 2.59653 10.8 3.07994V4.17994C10.8 4.30144 10.9791 4.39993 11.2 4.39994H14.3469L14.0469 5.71994H11.2C10.9791 5.71995 10.8 5.81844 10.8 5.93994V10.1199H8.4V5.93994C8.39998 5.81844 8.22091 5.71995 8 5.71994H5.6V4.39994H8C8.22091 4.39993 8.39998 4.30144 8.4 4.17994V2.94072C8.4 2.2489 8.76812 1.74386 9.38907 1.40459C10.01 1.06532 10.908 0.879941 12.0563 0.879941Z" fill="#94D82D"/>
</svg>
