<svg width="16" height="11" viewBox="0 0 16 11" fill="none" xmlns="http://www.w3.org/2000/svg">
<g clip-path="url(#clip0_58_1991)">
<path d="M10.3333 5.27091H5.33333C5.14933 5.27091 5 5.37358 5 5.50008V6.41675C5 6.54325 5.14933 6.64591 5.33333 6.64591H8.514C8.08366 7.59008 6.80466 8.25008 5.33333 8.25008C3.49533 8.25008 2 7.22204 2 5.95841C2 4.69479 3.49533 3.66675 5.33333 3.66675C5.99066 3.66675 6.632 3.80218 7.18866 4.05839C7.321 4.11935 7.49733 4.1072 7.60966 4.02998L8.56566 3.37273C8.62899 3.32918 8.66033 3.2696 8.65966 3.20841H8.66666V2.75008H7.89733C7.11166 2.45354 6.22433 2.29175 5.33333 2.29175C2.61866 2.29175 0.376 3.69425 0.0463333 5.50008H0V5.95841C0 7.98012 2.39267 9.62508 5.33333 9.62508C8.27399 9.62508 10.6667 7.98012 10.6667 5.95841V5.50008C10.6667 5.37358 10.5173 5.27091 10.3333 5.27091Z" fill="#94D82D"/>
<path d="M15.6667 5.27091H14.6667V4.58341C14.6667 4.45691 14.5173 4.35425 14.3333 4.35425H13C12.816 4.35425 12.6667 4.45691 12.6667 4.58341V5.27091H11.6667C11.4827 5.27091 11.3333 5.37358 11.3333 5.50008V6.41675C11.3333 6.54325 11.4827 6.64591 11.6667 6.64591H12.6667V7.33341C12.6667 7.45991 12.816 7.56258 13 7.56258H14.3333C14.5173 7.56258 14.6667 7.45991 14.6667 7.33341V6.64591H15.6667C15.8507 6.64591 16 6.54325 16 6.41675V5.50008C16 5.37358 15.8507 5.27091 15.6667 5.27091Z" fill="#94D82D"/>
<path d="M5.33333 5.95833H8.93933C8.625 7.13029 7.12766 8.02083 5.33333 8.02083C3.31167 8.02083 1.66667 6.88989 1.66667 5.5C1.66667 4.1101 3.31167 2.97917 5.33333 2.97917C6.06566 2.97917 6.77466 3.13362 7.374 3.40954L8.33 2.75229C7.471 2.31023 6.42033 2.0625 5.33333 2.0625C2.57633 2.0625 0.333334 3.60456 0.333334 5.5C0.333334 7.39543 2.57633 8.9375 5.33333 8.9375C8.09033 8.9375 10.3333 7.39543 10.3333 5.5V5.04166H5.33333V5.95833Z" fill="white"/>
<path d="M15.6667 5.04167H14.3333V4.125H13V5.04167H11.6667V5.95833H13V6.875H14.3333V5.95833H15.6667V5.04167Z" fill="white"/>
<path d="M5.33333 9.1667C2.39267 9.1667 0 7.52175 0 5.50004C0 3.47833 2.39267 1.83337 5.33333 1.83337C6.47266 1.83337 7.608 2.09462 8.52966 2.56877C8.60699 2.60864 8.65533 2.6696 8.66233 2.73583C8.66933 2.80206 8.63399 2.86714 8.56533 2.91412L7.60933 3.57137C7.497 3.64883 7.32066 3.66075 7.18833 3.59979C6.632 3.34381 5.99066 3.20837 5.33333 3.20837C3.49533 3.20837 2 4.23641 2 5.50004C2 6.76366 3.49533 7.7917 5.33333 7.7917C6.80466 7.7917 8.08366 7.1317 8.514 6.18754H5.33333C5.14933 6.18754 5 6.08487 5 5.95837V5.04171C5 4.91521 5.14933 4.81254 5.33333 4.81254H10.3333C10.5173 4.81254 10.6667 4.91521 10.6667 5.04171V5.50004C10.6667 7.52175 8.27399 9.1667 5.33333 9.1667ZM5.33333 2.29171C2.76 2.29171 0.666666 3.73087 0.666666 5.50004C0.666666 7.2692 2.76 8.70837 5.33333 8.70837C7.90666 8.70837 9.99999 7.2692 9.99999 5.50004V5.27087H5.66666V5.7292H8.93933C9.03833 5.7292 9.13233 5.75945 9.19566 5.8117C9.25899 5.86395 9.28533 5.93293 9.26733 5.99985C8.91733 7.30381 7.263 8.25004 5.33333 8.25004C3.12766 8.25004 1.33333 7.01643 1.33333 5.50004C1.33333 3.98364 3.12766 2.75004 5.33333 2.75004C6.032 2.75004 6.71533 2.877 7.32533 3.119L7.81066 2.78533C7.068 2.46542 6.202 2.29171 5.33333 2.29171Z" fill="#94D82D"/>
<path d="M14.3333 7.10421H13C12.816 7.10421 12.6667 7.00154 12.6667 6.87504V6.18754H11.6667C11.4827 6.18754 11.3333 6.08487 11.3333 5.95837V5.04171C11.3333 4.91521 11.4827 4.81254 11.6667 4.81254H12.6667V4.12504C12.6667 3.99854 12.816 3.89587 13 3.89587H14.3333C14.5173 3.89587 14.6667 3.99854 14.6667 4.12504V4.81254H15.6667C15.8507 4.81254 16 4.91521 16 5.04171V5.95837C16 6.08487 15.8507 6.18754 15.6667 6.18754H14.6667V6.87504C14.6667 7.00154 14.5173 7.10421 14.3333 7.10421ZM13.3333 6.64587H14V5.95837C14 5.83187 14.1493 5.72921 14.3333 5.72921H15.3333V5.27087H14.3333C14.1493 5.27087 14 5.16821 14 5.04171V4.35421H13.3333V5.04171C13.3333 5.16821 13.184 5.27087 13 5.27087H12V5.72921H13C13.184 5.72921 13.3333 5.83187 13.3333 5.95837V6.64587Z" fill="#94D82D"/>
</g>
<defs>
<clipPath id="clip0_58_1991">
<rect width="16" height="11" fill="white"/>
</clipPath>
</defs>
</svg>
