<svg width="18" height="15" viewBox="0 0 18 15" fill="none" xmlns="http://www.w3.org/2000/svg">
<g id="Frame 1357">
<g id="Group">
<g id="Group_2">
<path id="Vector" d="M17 6.20328V4.4947C17 2.45183 14.9429 0.780396 12.4286 0.780396H5.57143C3.05714 0.780396 1 2.45183 1 4.4947V5.60899" stroke="white" stroke-opacity="0.99" stroke-miterlimit="10" stroke-linecap="round" stroke-linejoin="round"/>
<path id="Vector_2" d="M1 7.87463V10.0661C1 12.1089 3.05714 13.7804 5.57143 13.7804H12.4286C14.9429 13.7804 17 12.1089 17 10.0661V8.35749" stroke="white" stroke-opacity="0.99" stroke-miterlimit="10" stroke-linecap="round" stroke-linejoin="round"/>
<path id="Vector_3" d="M8.99997 4.12329C6.8514 4.12329 5.11426 5.53473 5.11426 7.28045C5.11426 9.02617 6.8514 10.4376 8.99997 10.4376C11.1485 10.4376 12.8857 9.02617 12.8857 7.28045C12.8857 5.53473 11.1485 4.12329 8.99997 4.12329Z" stroke="white" stroke-opacity="0.99" stroke-width="1.25" stroke-miterlimit="10"/>
<path id="Vector_4" d="M13.5715 2.82336C13.0687 2.82336 12.6572 3.15765 12.6572 3.56622C12.6572 3.9748 13.0687 4.30909 13.5715 4.30909C14.0744 4.30909 14.4858 3.9748 14.4858 3.56622C14.4858 3.15765 14.0744 2.82336 13.5715 2.82336Z" fill="white"/>
</g>
</g>
</g>
</svg>
