<svg width="16" height="17" viewBox="0 0 16 17" fill="none" xmlns="http://www.w3.org/2000/svg">
<g clip-path="url(#clip0_52_743)">
<path d="M7.99992 1.83331C5.41992 1.83331 3.33325 3.91998 3.33325 6.49998C3.33325 9.99998 7.99992 15.1666 7.99992 15.1666C7.99992 15.1666 12.6666 9.99998 12.6666 6.49998C12.6666 3.91998 10.5799 1.83331 7.99992 1.83331ZM4.66659 6.49998C4.66659 4.65998 6.15992 3.16665 7.99992 3.16665C9.83992 3.16665 11.3333 4.65998 11.3333 6.49998C11.3333 8.41998 9.41325 11.2933 7.99992 13.0866C6.61325 11.3066 4.66659 8.39998 4.66659 6.49998Z" fill="#1B1B25"/>
<path d="M7.99992 8.16665C8.92039 8.16665 9.66658 7.42045 9.66658 6.49998C9.66658 5.57951 8.92039 4.83331 7.99992 4.83331C7.07944 4.83331 6.33325 5.57951 6.33325 6.49998C6.33325 7.42045 7.07944 8.16665 7.99992 8.16665Z" fill="#1B1B25"/>
</g>
<defs>
<clipPath id="clip0_52_743">
<rect width="16" height="16" fill="white" transform="translate(0 0.5)"/>
</clipPath>
</defs>
</svg>
