<svg width="18" height="12" viewBox="0 0 18 12" fill="none" xmlns="http://www.w3.org/2000/svg">
<path d="M16.875 2.89427C16.8735 2.83827 16.8439 2.78277 16.7869 2.73752C16.7014 2.67002 16.5709 2.64102 16.4437 2.65377C16.4539 2.62977 16.4584 2.60527 16.4576 2.58102C16.4557 2.50852 16.4591 2.11327 16.4595 2.08827C16.4602 2.01302 16.4096 1.94002 16.3181 1.89152C16.1966 1.82652 16.0271 1.81902 15.8936 1.87202C15.3784 2.07502 14.8264 2.22252 14.2507 2.31152C13.6144 1.91252 12.7635 1.68652 11.8841 1.68652C9.98024 1.68652 8.43112 2.71927 8.43112 3.98852C8.43112 4.05327 8.43525 4.11777 8.44312 4.18202C6.25837 4.02677 4.23412 3.29852 2.83462 2.15352C2.757 2.08977 2.6325 2.05577 2.51475 2.06227C2.39175 2.06877 2.28187 2.11502 2.22 2.18577C1.914 2.53677 1.752 2.93727 1.752 3.34402C1.752 3.42527 1.752 3.75702 1.752 3.84402C1.752 4.09602 1.8195 4.34052 1.93575 4.57252C1.92787 4.57502 1.91962 4.57627 1.91212 4.57902C1.79737 4.62402 1.72725 4.70602 1.72725 4.79452V4.82077C1.72725 4.94127 1.72725 5.25202 1.72725 5.29452V5.32077C1.72725 5.98802 2.16562 6.59952 2.87025 7.02527C2.89687 7.07377 2.9235 7.12227 2.95425 7.16927C2.93475 7.17902 2.91562 7.18927 2.89912 7.20177C2.81137 7.26802 2.78212 7.36002 2.82262 7.44427C3.07537 7.96852 3.59437 8.39852 4.2585 8.68077C3.40912 8.89077 2.48512 8.96702 1.5435 8.89377C1.37587 8.87977 1.206 8.94852 1.14712 9.05802C1.13325 9.08352 1.12612 9.10952 1.125 9.13552C1.12125 9.22127 1.125 9.61377 1.125 9.64177C1.12462 9.72502 1.18725 9.80552 1.2975 9.85252C2.76862 10.4813 4.46962 10.8135 6.21637 10.8135C11.9329 10.8135 15.3491 7.71902 15.3491 4.72727C15.3491 4.67877 15.3484 4.63077 15.3465 4.58327C15.9161 4.29127 16.4085 3.94002 16.8116 3.53752C16.8529 3.49652 16.8735 3.45002 16.875 3.40327C16.8765 3.34427 16.8761 2.94402 16.875 2.89427Z" fill="#94D82D"/>
<path d="M16.5 2.89878C15.9472 3.06253 15.3536 3.17153 14.7315 3.22203C15.3667 2.96803 15.855 2.56553 16.0841 2.08703C15.4901 2.32128 14.8305 2.49278 14.1292 2.58403C13.5682 2.18478 12.7699 1.93628 11.8841 1.93628C10.185 1.93628 8.80575 2.85453 8.80575 3.98853C8.80575 4.14903 8.83387 4.30528 8.88675 4.45603C6.33 4.37028 4.06162 3.55303 2.544 2.31153C2.2785 2.61628 2.12662 2.96803 2.12662 3.34428C2.12662 4.05578 2.66925 4.68378 3.49575 5.05228C2.991 5.04128 2.51737 4.94878 2.10187 4.79503C2.10187 4.80378 2.10187 4.81153 2.10187 4.82153C2.10187 5.81578 3.16275 6.64378 4.56975 6.83303C4.3125 6.88028 4.04025 6.90553 3.75975 6.90553C3.56025 6.90553 3.36712 6.89228 3.17925 6.86803C3.57187 7.68178 4.7085 8.27678 6.05437 8.29328C5.00175 8.84303 3.67575 9.17077 2.23237 9.17077C1.98337 9.17077 1.73925 9.16078 1.5 9.14228C2.86087 9.72402 4.47937 10.0638 6.21637 10.0638C11.8777 10.0638 14.9741 6.93728 14.9741 4.22753C14.9741 4.13728 14.9707 4.04928 14.9644 3.96128C15.5662 3.67178 16.0875 3.31003 16.5 2.89878Z" fill="white"/>
<path d="M6.21664 10.3135C4.46989 10.3135 2.76889 9.98127 1.29776 9.35252C1.15076 9.28977 1.08814 9.16777 1.14739 9.05802C1.20589 8.94852 1.37726 8.87952 1.54376 8.89377C2.79214 8.99077 4.00864 8.82602 5.06164 8.43427C4.01801 8.21177 3.17089 7.66552 2.82289 6.94427C2.78239 6.86002 2.81164 6.76802 2.89939 6.70177C2.94139 6.66977 2.99464 6.64627 3.05239 6.63252C2.23939 6.20627 1.72751 5.54502 1.72751 4.82102V4.79477C1.72751 4.70627 1.79801 4.62402 1.91239 4.57927C2.02714 4.53452 2.16889 4.53327 2.28476 4.57627C2.28589 4.57677 2.28739 4.57727 2.28851 4.57777C1.94314 4.21452 1.75226 3.78852 1.75226 3.34402C1.75226 2.93727 1.91426 2.53677 2.22026 2.18577C2.28214 2.11502 2.39201 2.06877 2.51501 2.06227C2.63276 2.05627 2.75726 2.08977 2.83526 2.15352C4.23476 3.29852 6.25901 4.02677 8.44376 4.18202C8.43588 4.11752 8.43176 4.05302 8.43176 3.98852C8.43176 2.71927 9.98088 1.68652 11.8848 1.68652C12.7641 1.68652 13.6146 1.91252 14.2514 2.31152C14.827 2.22277 15.379 2.07527 15.8943 1.87202C16.0274 1.81902 16.1973 1.82652 16.3188 1.89152C16.4406 1.95627 16.4898 2.06427 16.4421 2.16327C16.3394 2.37827 16.1894 2.58077 15.9996 2.76427C16.1174 2.73552 16.234 2.70402 16.3484 2.67002C16.501 2.62527 16.6803 2.65252 16.7875 2.73752C16.8951 2.82277 16.9053 2.94502 16.8123 3.03752C16.4091 3.43977 15.9164 3.79127 15.3471 4.08327C15.349 4.13077 15.3498 4.17877 15.3498 4.22727C15.3494 7.21902 11.9331 10.3135 6.21664 10.3135ZM3.01901 9.39027C4.02776 9.66877 5.11264 9.81352 6.21664 9.81352C11.9984 9.81352 14.5994 6.54702 14.5994 4.22727C14.5994 4.14102 14.596 4.05727 14.59 3.97352C14.5836 3.88877 14.6425 3.80777 14.7453 3.75827C14.9718 3.64952 15.1851 3.53052 15.385 3.40202C15.0666 3.37802 14.5574 3.27052 14.5574 3.27052C14.5574 3.27052 15.0003 3.00002 15.1885 2.64602C14.8679 2.72427 14.5383 2.78602 14.2015 2.82952C14.0751 2.84652 13.9443 2.81802 13.8561 2.75502C13.3405 2.38827 12.6404 2.18652 11.8844 2.18652C10.3938 2.18652 9.18138 2.99477 9.18138 3.98852C9.18138 4.12677 9.20501 4.26477 9.25188 4.39952C9.27851 4.47602 9.25001 4.55627 9.17463 4.61652C9.09926 4.67652 8.99051 4.70877 8.86788 4.70577C6.49414 4.62602 4.25726 3.92527 2.64326 2.76802C2.55026 2.95277 2.50189 3.14752 2.50189 3.34402C2.50189 3.94777 2.95151 4.50852 3.70451 4.84427C3.84364 4.90627 3.90439 5.02227 3.85301 5.12852C3.80164 5.23477 3.65426 5.31227 3.48401 5.30177C3.15701 5.29477 2.83976 5.25802 2.53526 5.19227C2.75464 5.88352 3.57439 6.44377 4.64389 6.58752C4.81414 6.61052 4.93864 6.70802 4.94464 6.82377C4.95101 6.93952 4.83701 7.04277 4.66976 7.07352C4.38251 7.12652 4.08401 7.15377 3.78139 7.15502C4.25164 7.68702 5.10851 8.03127 6.06176 8.04302C6.22039 8.04502 6.35989 8.11327 6.41051 8.21377C6.46114 8.31427 6.41126 8.42477 6.28639 8.48977C5.32826 8.99027 4.21114 9.29677 3.01901 9.39027Z" fill="#94D82D"/>
</svg>
