<svg width="19" height="14" viewBox="0 0 19 14" fill="none" xmlns="http://www.w3.org/2000/svg">
<path id="Vector" d="M9.5 0.519653C9.5 0.519653 3.55827 0.519629 2.07627 0.859254C1.25832 1.04613 0.615571 1.59666 0.397071 2.29541C-2.85506e-05 3.56291 0 7.01965 0 7.01965C0 7.01965 -2.85506e-05 10.4764 0.397071 11.7439C0.615571 12.4435 1.25927 12.9932 2.07627 13.1801C3.55827 13.5197 9.5 13.5197 9.5 13.5197C9.5 13.5197 15.4417 13.5197 16.9237 13.1801C17.7407 12.9932 18.3844 12.4426 18.6029 11.7439C19 10.4764 19 7.01965 19 7.01965C19 7.01965 19 3.56291 18.6029 2.29541C18.3844 1.59666 17.7407 1.04613 16.9237 0.859254C15.4417 0.519629 9.5 0.519653 9.5 0.519653ZM9.5 2.14465C12.2379 2.14465 15.6663 2.25321 16.432 2.42871C16.5926 2.46527 16.7242 2.57782 16.7679 2.71595C16.9968 3.44557 17.1 5.67254 17.1 7.01966C17.1 8.36679 16.9968 10.5929 16.7679 11.3234C16.7251 11.4607 16.5935 11.5732 16.432 11.6106C15.6673 11.7861 12.2379 11.8947 9.50001 11.8947C6.76306 11.8947 3.33463 11.7861 2.56798 11.6106C2.40743 11.574 2.27584 11.4615 2.23214 11.3234C2.00319 10.5938 1.90001 8.36679 1.90001 7.01967C1.90001 5.67254 2.00319 3.44562 2.23214 2.71437C2.27489 2.57787 2.40648 2.46529 2.56798 2.42873C3.33273 2.25323 6.7621 2.14465 9.5 2.14465ZM7.6 4.20447V9.83484L13.3 7.01966L7.6 4.20447Z" fill="white"/>
</svg>
